#!OML:ASF E:\emotionWalksFemale\Project 1\Capture day 1\Session 1\Female1.ASF
:FULLY-SPECIFIED
:DEGREES
451
root 8.51811 15.4643 19.7534 359.524 6.74913 1.58546
lowerback 7.6542 2.19145 0.360556
upperback -4.36709 2.88856 -1.20218
thorax -8.84202 1.3439 -1.91409
lowerneck -3.67221 -5.89302 -11.0577
upperneck 5.99743 -7.87101 9.40718
head 3.19169 -3.85901 4.30152
rclavicle 1.60022e-014 -1.12313e-014
rhumerus -39.1901 10.5109 -92.9802
rradius 30.9654
rwrist 33.0176
rhand -0.45505 -58.2754
rfingers 7.12502
rthumb 25.1544 -806.638
lclavicle 1.60022e-014 -1.12313e-014
lhumerus -40.4305 16.8825 70.9154
lradius 34.3287
lwrist -21.649
lhand -10.8364 -31.7583
lfingers 7.12502
lthumb 15.178 -2.33502
rfemur -3.02112 15.5916 25.9105
rtibia 20.9085
rfoot -25.3188 -29.6716
rtoes -6.18065
lfemur -8.38183 -18.0005 -26.9632
ltibia 24.6314
lfoot -30.6973 13.6966
ltoes -26.6528
452
root 8.5151 15.4671 19.7588 359.581 6.45142 1.60767
lowerback 7.49485 2.16632 0.210348
upperback -4.4574 2.83858 -1.19407
thorax -8.85601 1.32868 -1.8095
lowerneck -3.64897 -5.77819 -11.1173
upperneck 6.27379 -7.7411 9.539
head 3.26424 -3.7928 4.35843
rclavicle 3.80051e-014 8.64713e-015
rhumerus -39.5869 10.3604 -92.6608
rradius 30.8478
rwrist 32.8074
rhand 0.67821 -59.1199
rfingers 7.12502
rthumb 26.2398 -807.326
lclavicle 3.80051e-014 8.64713e-015
lhumerus -40.1572 15.5543 71.4829
lradius 35.6315
lwrist -18.1792
lhand -9.46297 -31.3116
lfingers 7.12502
lthumb 16.5007 -1.99323
rfemur -2.91868 16.1604 25.917
rtibia 20.6721
rfoot -25.3829 -29.5139
rtoes -6.82946
lfemur -8.23173 -17.9779 -26.9919
ltibia 24.2317
lfoot -30.4604 14.9992
ltoes -30.4486
453
root 8.51194 15.4768 19.7682 359.736 5.95096 1.49993
lowerback 7.1188 2.16319 0.10902
upperback -4.56711 2.83131 -1.10595
thorax -8.76389 1.3358 -1.64423
lowerneck -3.47858 -5.65399 -10.9566
upperneck 6.39398 -7.60105 9.45692
head 3.2477 -3.72706 4.31992
rclavicle 1.16662e-014 7.35503e-015
rhumerus -40.0967 10.5829 -92.4699
rradius 30.8175
rwrist 32.6176
rhand 1.46488 -59.7695
rfingers 7.12502
rthumb 26.9927 -807.861
lclavicle 1.16662e-014 7.35503e-015
lhumerus -39.9441 13.8132 72.391
lradius 37.4794
lwrist -14.2654
lhand -8.76237 -29.7314
lfingers 7.12502
lthumb 17.1752 -0.470517
rfemur -2.93473 16.6716 26.0031
rtibia 20.3682
rfoot -25.1371 -29.183
rtoes -7.78529
lfemur -8.21387 -17.8556 -26.8559
ltibia 23.9628
lfoot -30.2492 16.2358
ltoes -34.143
454
root 8.51347 15.484 19.7756 359.837 5.67455 1.304
lowerback 6.81384 2.11058 0.248758
upperback -4.62463 2.78035 -1.05948
thorax -8.6439 1.30602 -1.65349
lowerneck -3.62015 -5.55345 -10.5845
upperneck 6.71863 -7.47165 9.18327
head 3.33027 -3.65989 4.1773
rclavicle -3.45388e-015 -1.54058e-014
rhumerus -40.5083 10.7249 -92.3078
rradius 31.0118
rwrist 31.8268
rhand 2.39834 -60.4488
rfingers 7.12502
rthumb 27.8855 -808.399
lclavicle -3.45388e-015 -1.54058e-014
lhumerus -39.7149 12.7035 72.6944
lradius 38.5871
lwrist -10.8736
lhand -9.88087 -33.4835
lfingers 7.12502
lthumb 16.0984 -4.13217
rfemur -2.87109 16.9529 26.1711
rtibia 19.9991
rfoot -24.9628 -28.7574
rtoes -7.3664
lfemur -8.1878 -18.1959 -26.6223
ltibia 23.8096
lfoot -30.6254 16.6608
ltoes -35.1848
455
root 8.51449 15.4871 19.7778 359.921 5.55415 1.15465
lowerback 6.70007 2.07382 0.400364
upperback -4.7014 2.74619 -1.07366
thorax -8.65348 1.27972 -1.74575
lowerneck -3.87215 -5.5506 -10.2279
upperneck 7.14407 -7.46721 8.88591
head 3.4744 -3.65302 4.01855
rclavicle 5.41812e-014 5.56597e-015
rhumerus -40.893 10.7362 -92.1409
rradius 31.4835
rwrist 30.1779
rhand 4.02894 -61.0981
rfingers 7.12502
rthumb 29.4433 -808.785
lclavicle 5.41812e-014 5.56597e-015
lhumerus -39.4328 11.3174 73.1406
lradius 39.8084
lwrist -7.61916
lhand -8.81507 -34.7749
lfingers 7.12502
lthumb 17.1244 -5.50953
rfemur -2.76893 17.2102 26.3044
rtibia 19.5749
rfoot -24.5354 -28.5237
rtoes -5.8867
lfemur -8.19456 -18.6845 -26.4274
ltibia 23.7593
lfoot -30.7696 16.6061
ltoes -35.0421
456
root 8.51498 15.49 19.7788 359.984 5.45765 0.986449
lowerback 6.7069 2.00819 0.556099
upperback -4.80989 2.67546 -1.06477
thorax -8.77089 1.23425 -1.81757
lowerneck -3.64528 -5.4208 -10.0798
upperneck 6.98331 -7.3199 8.96246
head 3.37136 -3.57918 4.03482
rclavicle 5.81694e-014 -1.63003e-014
rhumerus -41.4441 11.0348 -92.0975
rradius 31.7037
rwrist 29.6997
rhand 4.45545 -61.22
rfingers 7.12502
rthumb 29.8504 -808.834
lclavicle 5.81694e-014 -1.63003e-014
lhumerus -39.1657 9.72977 73.7034
lradius 41.0365
lwrist -4.04728
lhand -8.21361 -36.0542
lfingers 7.12502
lthumb 17.7033 -6.84007
rfemur -2.67661 17.3927 26.4634
rtibia 19.1702
rfoot -23.8012 -28.5603
rtoes -5.06412
lfemur -8.20142 -19.1326 -26.2073
ltibia 23.757
lfoot -30.8702 16.2382
ltoes -33.3655
457
root 8.51716 15.4929 19.779 360.035 5.35498 0.770738
lowerback 6.64132 1.88174 0.734415
upperback -4.84167 2.52921 -1.00374
thorax -8.76657 1.15421 -1.83057
lowerneck -3.866 -5.30793 -9.66653
upperneck 7.12975 -7.15492 8.62273
head 3.40868 -3.49358 3.86677
rclavicle -2.07233e-014 -3.18055e-015
rhumerus -41.8584 11.4037 -91.9978
rradius 32.0157
rwrist 29.2072
rhand 4.48749 -60.9747
rfingers 7.12502
rthumb 29.881 -808.583
lclavicle -2.07233e-014 -3.18055e-015
lhumerus -38.823 8.37777 74.1716
lradius 42.2129
lwrist -0.661945
lhand -7.40881 -36.162
lfingers 7.12502
lthumb 18.4776 -7.01958
rfemur -2.6183 17.5114 26.6637
rtibia 18.8509
rfoot -23.1737 -28.6882
rtoes -4.8024
lfemur -8.21041 -19.4696 -25.9858
ltibia 23.7513
lfoot -30.8237 16.4835
ltoes -33.0325
458
root 8.51954 15.4973 19.7769 360.141 5.20685 0.678392
lowerback 6.51494 1.78862 0.767471
upperback -4.83364 2.40992 -0.965708
thorax -8.68766 1.09658 -1.78686
lowerneck -3.65713 -5.18176 -9.70929
upperneck 6.73685 -7.0032 8.93138
head 3.25443 -3.414 3.98589
rclavicle 2.127e-014 9.93923e-016
rhumerus -42.1555 11.7059 -91.8135
rradius 32.402
rwrist 28.6625
rhand 4.78825 -60.1936
rfingers 7.12502
rthumb 30.168 -807.75
lclavicle 2.127e-014 9.93923e-016
lhumerus -38.3927 7.35134 74.5061
lradius 43.3276
lwrist 2.16085
lhand -6.54991 -35.7268
lfingers 7.12502
lthumb 19.3037 -6.66485
rfemur -2.65098 17.6757 26.7126
rtibia 18.6294
rfoot -22.6805 -28.7729
rtoes -4.04457
lfemur -8.26792 -19.8402 -25.8971
ltibia 23.7207
lfoot -30.6313 16.9005
ltoes -32.8678
459
root 8.52138 15.4997 19.7747 360.259 5.01611 0.71755
lowerback 6.44095 1.74481 0.698267
upperback -4.83957 2.34224 -0.98148
thorax -8.65486 1.06768 -1.75272
lowerneck -3.84624 -5.16331 -9.47765
upperneck 6.74794 -6.97224 8.85875
head 3.27547 -3.39073 3.92313
rclavicle 7.82715e-015 9.34288e-015
rhumerus -42.4765 12.1996 -91.7566
rradius 32.7209
rwrist 27.8129
rhand 5.37906 -59.4073
rfingers 7.12502
rthumb 30.7315 -806.86
lclavicle 7.82715e-015 9.34288e-015
lhumerus -37.9661 6.20283 74.8261
lradius 44.3459
lwrist 4.78317
lhand -6.18891 -35.8186
lfingers 7.12502
lthumb 19.6507 -6.79179
rfemur -2.74828 17.7381 26.5958
rtibia 18.4923
rfoot -22.2599 -28.7346
rtoes -3.51185
lfemur -8.33145 -20.2202 -25.9374
ltibia 23.6504
lfoot -30.5217 17.3224
ltoes -32.4899
460
root 8.52301 15.4993 19.7726 360.319 4.81757 0.78966
lowerback 6.43951 1.69332 0.627321
upperback -4.83286 2.2628 -1.01678
thorax -8.65055 1.03201 -1.73925
lowerneck -3.70809 -5.03417 -9.2405
upperneck 6.48729 -6.80307 8.77568
head 3.14785 -3.30788 3.87431
rclavicle 1.963e-015 7.55382e-015
rhumerus -42.809 12.8047 -91.7726
rradius 33.0058
rwrist 26.8934
rhand 5.5757 -58.4831
rfingers 7.12502
rthumb 30.9189 -805.9
lclavicle 1.963e-015 7.55382e-015
lhumerus -37.6772 5.15482 75.0462
lradius 45.3716
lwrist 6.94274
lhand -5.96061 -35.649
lfingers 7.12502
lthumb 19.8702 -6.64478
rfemur -2.828 17.7214 26.4512
rtibia 18.4442
rfoot -21.7612 -28.6514
rtoes -4.25622
lfemur -8.30003 -20.4126 -26.0467
ltibia 23.5096
lfoot -30.261 17.8015
ltoes -33.1661
461
root 8.52364 15.5013 19.7679 360.353 4.61426 0.838946
lowerback 6.51803 1.58345 0.532799
upperback -4.79483 2.1095 -0.963102
thorax -8.66555 0.964524 -1.61051
lowerneck -3.93777 -4.90597 -9.23505
upperneck 6.46288 -6.60685 8.73424
head 3.15897 -3.2065 3.86632
rclavicle 1.85118e-015 1.37161e-014
rhumerus -43.0937 13.4441 -91.6566
rradius 33.4194
rwrist 26.0341
rhand 5.38479 -57.5228
rfingers 7.12502
rthumb 30.7369 -804.974
lclavicle 1.85118e-015 1.37161e-014
lhumerus -37.5109 4.9214 75.1408
lradius 46.3717
lwrist 8.25932
lhand -5.52376 -34.7622
lfingers 7.12502
lthumb 20.2901 -5.80207
rfemur -2.9226 17.7651 26.3504
rtibia 18.4824
rfoot -21.1804 -28.5391
rtoes -5.37997
lfemur -8.22023 -20.5346 -26.1062
ltibia 23.2933
lfoot -30.0487 17.7893
ltoes -33.1829
462
root 8.52606 15.5041 19.7653 360.366 4.37325 0.897659
lowerback 6.57232 1.43996 0.403854
upperback -4.68962 1.91423 -0.82011
thorax -8.59769 0.882738 -1.35945
lowerneck -4.28946 -4.68962 -9.60496
upperneck 6.44968 -6.27451 8.93403
head 3.20071 -3.03538 3.9986
rclavicle 2.66247e-014 3.57812e-015
rhumerus -43.2557 14.0263 -91.3296
rradius 33.8214
rwrist 25.4056
rhand 5.14358 -56.6109
rfingers 7.12502
rthumb 30.5069 -804.105
lclavicle 2.66247e-014 3.57812e-015
lhumerus -36.7164 4.33668 75.4774
lradius 46.6082
lwrist 9.81931
lhand -5.69263 -35.0366
lfingers 7.12502
lthumb 20.1278 -6.05927
rfemur -3.03304 17.7295 26.2236
rtibia 18.5714
rfoot -20.8163 -28.3519
rtoes -5.91921
lfemur -8.11148 -20.6936 -26.1803
ltibia 23.0342
lfoot -29.8881 18.1683
ltoes -33.5588
463
root 8.53064 15.5044 19.7658 360.273 4.10263 0.988607
lowerback 6.62436 1.3575 0.25322
upperback -4.53896 1.79494 -0.723911
thorax -8.47523 0.837929 -1.15515
lowerneck -4.64551 -4.59518 -9.8042
upperneck 6.4756 -6.11178 9.04616
head 3.26165 -2.9469 4.06715
rclavicle 1.80956e-014 -7.60351e-015
rhumerus -43.3545 14.3264 -90.9176
rradius 34.1093
rwrist 24.9582
rhand 4.77753 -55.6231
rfingers 7.12502
rthumb 30.1578 -803.182
lclavicle 1.80956e-014 -7.60351e-015
lhumerus -36.0191 3.88781 75.6993
lradius 46.8469
lwrist 10.7185
lhand -5.9541 -36.8783
lfingers 7.12502
lthumb 19.8765 -7.87471
rfemur -3.01325 17.5004 26.0704
rtibia 18.6533
rfoot -20.6715 -28.0753
rtoes -6.36413
lfemur -7.86566 -20.9988 -26.3384
ltibia 22.7732
lfoot -29.6892 18.755
ltoes -32.8885
